# xmcd
#
# Track frame offsets: 
#        150
#        21087
#        41989
#        62552
#        88327
#        113930
#        132888
#        156983
#        177187
#        193393
#        213393
#        229939
#        250382
#        264372
#        283010
#        310707
#        331668
#
# Disc length: 4791 seconds
#
# Revision: 2
# Processed by: cddbd v1.5.2PL0 Copyright (c) Steve Scherf et al.
# Submitted via: ExactAudioCopy v1.3
#
DISCID=fb12b511
DTITLE=Various Artist - Akella Presents - vol.79 - Electric and Rockin'
DTITLE=Blues  CD1
DYEAR=2016
DGENRE=Blues
TTITLE0=Danny Brooks - Southern Thing
TTITLE1=Fast Freddy Sims and Blue Point of View - The Blues Is Comin'
TTITLE2=Crooked Eye Tommy - Time Will Tell
TTITLE3=Southside Slim - Married Woman
TTITLE4=Bargel and Heuser - How Can I Go On
TTITLE5=Too Slim and The Taildraggers - Been Through Hell
TTITLE6=Woodleg Odd - Lead us to the light
TTITLE7=Thorbjorn Risager And The Black Tornado - Paradise
TTITLE8=Moreland and Arbuckle - Why'd She Have To Go (And Let Me Down)
TTITLE9=Wentus Blues Band - Here In The Night
TTITLE10=Mississippi Shakedown - One Step Forward
TTITLE11=The Eric Street Band - Hear Me Cry
TTITLE12=Bill Wharton - Let The Big Dog Eat
TTITLE13=Tinsley Ellis - As The Years Go Passing By
TTITLE14=The Nick Moss Band - EZ Bree Zee
TTITLE15=Contino - Temptation
TTITLE16=Shun Kikuta - I'll Play The Blues For You
EXTD=
EXTT0=
EXTT1=
EXTT2=
EXTT3=
EXTT4=
EXTT5=
EXTT6=
EXTT7=
EXTT8=
EXTT9=
EXTT10=
EXTT11=
EXTT12=
EXTT13=
EXTT14=
EXTT15=
EXTT16=
PLAYORDER=
